<?xml version="1.0" encoding="UTF-8"?>
<svg version="1.1" xmlns="http://www.w3.org/2000/svg" width="1024" height="1024">
<path d="M0 0 C0.85705032 -0.00570007 1.71410065 -0.01140015 2.59712219 -0.01727295 C4.4084043 -0.02669797 6.21970335 -0.03324698 8.03100586 -0.03710938 C10.77423818 -0.04678141 13.51670993 -0.07781445 16.25976562 -0.109375 C28.32683469 -0.18231774 39.4651308 -0.16315258 48.703125 8.734375 C56.16625147 16.76316631 57.28371282 25.9974023 57.2109375 36.6640625 C57.20952255 37.45463043 57.2081076 38.24519836 57.20664978 39.0597229 C57.20108629 41.56589666 57.18854069 44.07197858 57.17578125 46.578125 C57.17076153 48.28515495 57.16619945 49.99218632 57.16210938 51.69921875 C57.15112884 55.86722248 57.13388964 60.03515821 57.11328125 64.203125 C58.12116699 64.2124707 59.12905273 64.22181641 60.16748047 64.23144531 C63.95127567 64.27169178 67.73428703 64.3375411 71.51757812 64.41064453 C73.1467065 64.43865524 74.77596575 64.45996751 76.40527344 64.47412109 C87.21365706 64.57358475 97.22350125 64.67028361 105.86328125 72.078125 C114.56292532 81.7418822 117.86166393 97.77874582 121.91967773 109.83837891 C122.9361906 112.85905753 123.96057491 115.87697926 124.98632812 118.89453125 C125.63977157 120.82276468 126.29278254 122.75114474 126.9453125 124.6796875 C127.24943558 125.57756989 127.55355865 126.47545227 127.86689758 127.40054321 C128.28820198 128.65367813 128.28820198 128.65367813 128.71801758 129.93212891 C128.96417313 130.66267487 129.21032867 131.39322083 129.46394348 132.14590454 C130.09671511 134.15064044 130.62629161 136.15857135 131.11328125 138.203125 C132.47075579 134.01669022 133.82428386 129.82899319 135.17578125 125.640625 C135.37891937 125.01108917 135.5820575 124.38155334 135.79135132 123.73294067 C138.87582735 114.16317944 141.87335894 104.57043642 144.72875977 94.92944336 C151.18236553 73.34798705 151.18236553 73.34798705 161.11328125 67.21875 C164.73509647 65.37954696 168.0781538 65.07170212 172.10620117 65.02612305 C173.59376167 65.00687019 173.59376167 65.00687019 175.1113739 64.98722839 C176.17805801 64.97984146 177.24474213 64.97245453 178.34375 64.96484375 C179.44874344 64.956772 180.55373688 64.94870026 181.69221497 64.94038391 C184.03152911 64.9265578 186.37086331 64.91582907 188.71020508 64.90795898 C192.27008804 64.89077318 195.82903562 64.84687534 199.38867188 64.80273438 C201.66535778 64.79260446 203.94205155 64.78408929 206.21875 64.77734375 C207.27531296 64.75983566 208.33187592 64.74232758 209.42045593 64.72428894 C216.94659089 64.74614395 223.55334997 65.90543543 229.234375 71.16796875 C229.66878906 71.81894531 230.10320313 72.46992188 230.55078125 73.140625 C231.00324219 73.78902344 231.45570313 74.43742187 231.921875 75.10546875 C236.05322831 82.37935966 236.21805757 89.50426077 234.31884766 97.58203125 C233.11776964 101.49506503 231.79539255 105.34674869 230.42578125 109.203125 C229.90308739 110.71727242 229.38190682 112.23194288 228.86206055 113.74707031 C227.6685344 117.21125012 226.46158588 120.67042056 225.24609375 124.12695312 C223.47584149 129.1619736 221.72260068 134.20274793 219.97434711 139.24544525 C217.46485041 146.48367086 214.94725743 153.71906433 212.42578125 160.953125 C212.20324802 161.59175476 211.9807148 162.23038452 211.75143814 162.8883667 C206.69456589 177.39514259 201.54591889 191.85678303 196.11250305 206.22723389 C193.48522495 213.18052558 190.98842321 220.15922705 188.61328125 227.203125 C187.78398815 229.62420298 186.95345203 232.04482079 186.12109375 234.46484375 C185.89604156 235.11958176 185.67098938 235.77431976 185.43911743 236.44889832 C182.18484071 245.91070823 178.91471243 255.36679254 175.60766602 264.81030273 C174.8714916 266.91831448 174.13912114 269.02765921 173.41088867 271.13842773 C161.95638213 304.3170896 161.95638213 304.3170896 150.11328125 317.203125 C149.46488281 317.91984375 148.81648437 318.6365625 148.1484375 319.375 C136.18278013 331.98040539 120.50705865 338.00458229 103.28443909 338.49304199 C99.79553405 338.55610218 96.30779949 338.57436491 92.81835938 338.57373047 C90.11915502 338.57811546 87.42157391 338.6145589 84.72265625 338.65234375 C72.42191757 338.73372894 63.0215142 337.80435428 53.734375 328.984375 C46.00433233 320.49064137 46.62747283 308.17020409 47.00390625 297.40185547 C47.56419268 286.13859753 48.46282231 276.34911123 56.92578125 268.328125 C62.95632641 262.9814561 70.38423323 262.85796858 78.05078125 262.578125 C78.92541016 262.53945313 79.80003906 262.50078125 80.70117188 262.4609375 C82.83822756 262.3675143 84.97572419 262.28427102 87.11328125 262.203125 C84.62575358 254.43103393 81.9950646 246.75801215 78.98828125 239.171875 C74.55234512 227.86854461 70.3703463 216.47269 66.17578125 205.078125 C65.38881692 202.94395693 64.60170837 200.80984203 63.81445312 198.67578125 C61.91240532 193.51883883 60.0121167 188.36125104 58.11328125 183.203125 C58.10741501 184.0556636 58.10154877 184.90820221 58.09550476 185.78657532 C58.03734712 193.86249162 57.96514029 201.93813812 57.87756634 210.01379108 C57.83303934 214.16452872 57.79374555 218.31517219 57.7668457 222.46606445 C57.74063477 226.47981941 57.70011028 230.49320847 57.65009499 234.50673485 C57.63354549 236.02990315 57.62195765 237.55313456 57.61566734 239.07637978 C57.56303736 250.66081117 57.33836674 262.2414647 49.11328125 271.203125 C41.48387832 278.62632785 31.34684879 279.30792981 21.21484375 279.51953125 C20.37988373 279.54031235 19.54492371 279.56109344 18.68466187 279.58250427 C16.03594635 279.64751969 13.38713766 279.70665991 10.73828125 279.765625 C8.93488647 279.80885596 7.13150087 279.85247166 5.328125 279.89648438 C0.92327086 280.00315139 -3.48167635 280.10455195 -7.88671875 280.203125 C-7.88671875 279.543125 -7.88671875 278.883125 -7.88671875 278.203125 C-8.75683594 278.05617188 -8.75683594 278.05617188 -9.64453125 277.90625 C-18.29543958 276.25030055 -23.80675462 272.35715732 -28.88671875 265.203125 C-32.08140799 258.92390821 -33.01549939 253.18465896 -33.00024414 246.19775391 C-33.00016861 245.03700348 -33.00009308 243.87625305 -33.00001526 242.68032837 C-32.99485397 241.44261688 -32.98969269 240.2049054 -32.984375 238.9296875 C-32.98296005 237.65080658 -32.9815451 236.37192566 -32.98008728 235.05429077 C-32.97544897 231.67101164 -32.96647956 228.28780114 -32.9553833 224.90454102 C-32.9451139 221.44548126 -32.94057786 217.98641439 -32.93554688 214.52734375 C-32.92453484 207.75258534 -32.90780939 200.97785913 -32.88671875 194.203125 C-34.29367148 198.39764335 -35.6979843 202.59303678 -37.10043335 206.7890625 C-37.62603559 208.36099365 -38.15210011 209.9327703 -38.67861938 211.50439453 C-42.16491072 221.9148533 -45.58491083 232.34395781 -48.9296875 242.80078125 C-49.97023241 246.03892493 -51.01154098 249.27682226 -52.05297852 252.51467896 C-52.72386046 254.60926042 -53.39065678 256.70515573 -54.05297852 258.80245972 C-63.25925234 287.94464461 -74.30874487 317.06337814 -103.01171875 332.015625 C-112.76711838 336.60731072 -121.96324036 338.33990162 -132.71484375 338.44140625 C-133.54449646 338.449478 -134.37414917 338.45754974 -135.22894287 338.46586609 C-136.97698934 338.47962757 -138.72506178 338.49038479 -140.47314453 338.49829102 C-142.24178067 338.50980093 -144.01038233 338.53023719 -145.77880859 338.55981445 C-168.18587354 338.93361358 -168.18587354 338.93361358 -176.82421875 331.765625 C-177.50484375 330.92 -178.18546875 330.074375 -178.88671875 329.203125 C-179.58796875 328.501875 -180.28921875 327.800625 -181.01171875 327.078125 C-186.43681919 318.75963766 -186.38110046 308.75363454 -186.32421875 299.140625 C-186.34419922 297.93857422 -186.36417969 296.73652344 -186.38476562 295.49804688 C-186.37943795 285.73241453 -184.40809159 276.78201776 -177.88671875 269.203125 C-170.01311589 262.08316675 -157.01730611 262.203125 -146.88671875 262.203125 C-147.52437373 258.62145488 -148.46473556 255.33144607 -149.70703125 251.9140625 C-150.25810547 250.39051147 -150.25810547 250.39051147 -150.8203125 248.83618164 C-151.21347656 247.76102295 -151.60664062 246.68586426 -152.01171875 245.578125 C-152.41261719 244.4739624 -152.81351563 243.3697998 -153.2265625 242.23217773 C-154.44249449 238.887641 -155.66389369 235.54514687 -156.88671875 232.203125 C-157.24733398 231.21489746 -157.60794922 230.22666992 -157.97949219 229.20849609 C-158.94633496 226.56004739 -159.9155911 223.91250523 -160.88671875 221.265625 C-161.17691895 220.47397949 -161.46711914 219.68233398 -161.76611328 218.86669922 C-163.18550614 214.97540985 -163.18550614 214.97540985 -164.88671875 211.203125 C-164.99886719 212.1725 -165.11101562 213.141875 -165.2265625 214.140625 C-167.56150396 231.05616809 -175.82250645 243.4640475 -187.88671875 255.203125 C-188.72332031 256.02554688 -189.55992187 256.84796875 -190.421875 257.6953125 C-203.55801475 270.06118732 -219.54888439 277.71472281 -236.88671875 282.203125 C-237.59723389 282.39148926 -238.30774902 282.57985352 -239.03979492 282.77392578 C-246.93090268 284.62027175 -254.88951629 284.60051369 -262.94921875 284.578125 C-263.68315857 284.57758118 -264.41709839 284.57703735 -265.17327881 284.57647705 C-276.23317285 284.53874646 -286.36982291 283.9156467 -296.88671875 280.203125 C-297.52657715 279.98350098 -298.16643555 279.76387695 -298.82568359 279.53759766 C-307.77850458 276.41636991 -315.87345979 272.24685224 -323.88671875 267.203125 C-323.99886719 267.81027344 -324.11101562 268.41742187 -324.2265625 269.04296875 C-325.29445279 272.53730798 -327.94571504 274.27695577 -330.88671875 276.203125 C-337.87099815 279.53769071 -344.12237172 279.64119453 -351.78515625 279.6015625 C-353.01529449 279.60443268 -354.24543274 279.60730286 -355.5128479 279.61026001 C-358.10655174 279.61229516 -360.70027112 279.60680391 -363.29394531 279.59423828 C-367.2418898 279.57820553 -371.18880627 279.59409274 -375.13671875 279.61328125 C-377.66536682 279.61129819 -380.19401426 279.60745321 -382.72265625 279.6015625 C-384.47780045 279.61067154 -384.47780045 279.61067154 -386.2684021 279.6199646 C-398.3411669 279.51753748 -408.02179753 276.75784349 -416.875 268.3046875 C-422.34682684 262.40520285 -426.87459646 255.77790729 -431.47998047 249.20117188 C-434.00268083 245.61807924 -436.57025474 242.06743821 -439.13671875 238.515625 C-439.67288818 237.77256104 -440.20905762 237.02949707 -440.76147461 236.26391602 C-445.61836845 229.54586905 -450.53786273 222.87444111 -455.48144531 216.2199707 C-456.0431543 215.46159912 -456.60486328 214.70322754 -457.18359375 213.921875 C-457.68213867 213.25091797 -458.18068359 212.57996094 -458.69433594 211.88867188 C-459.88671875 210.203125 -459.88671875 210.203125 -460.88671875 208.203125 C-460.90653809 209.37705811 -460.92635742 210.55099121 -460.94677734 211.76049805 C-461.02367704 216.1758938 -461.11225346 220.59099555 -461.20410156 225.00610352 C-461.24204693 226.90578344 -461.27695521 228.80552684 -461.30859375 230.70532227 C-461.84883007 262.75653011 -461.84883007 262.75653011 -469.88671875 271.203125 C-475.50717716 275.79448539 -481.39620832 279.43674139 -488.80957031 279.4777832 C-489.76116028 279.48731522 -490.71275024 279.49684723 -491.69317627 279.50666809 C-493.21983917 279.50530098 -493.21983917 279.50530098 -494.77734375 279.50390625 C-496.36612335 279.51033394 -496.36612335 279.51033394 -497.98699951 279.51689148 C-500.22618903 279.52262776 -502.46539718 279.52314022 -504.70458984 279.51879883 C-508.11068005 279.51564908 -511.51589274 279.53907213 -514.921875 279.56445312 C-517.10286349 279.56672737 -519.28385431 279.56742903 -521.46484375 279.56640625 C-522.47452209 279.575616 -523.48420044 279.58482574 -524.5244751 279.59431458 C-533.80097649 279.53438773 -541.24891812 277.7557993 -548.09765625 271.2890625 C-555.25719083 262.94148288 -557.19423809 252.64123584 -557.15414429 241.97651672 C-557.16094096 240.63244988 -557.16094096 240.63244988 -557.16787493 239.26123017 C-557.18047652 236.27606955 -557.1789013 233.29109238 -557.17724609 230.3059082 C-557.18323405 228.15835843 -557.19004021 226.0108108 -557.19760132 223.86326599 C-557.21524275 218.04072694 -557.21995596 212.21824672 -557.22123289 206.39568353 C-557.22265626 202.75387161 -557.22692943 199.11207456 -557.23222733 195.47026634 C-557.25072249 182.7533613 -557.25889871 170.03649813 -557.25732422 157.31958008 C-557.25612344 145.48510789 -557.27721482 133.65081826 -557.30881155 121.81639224 C-557.33500775 111.64030711 -557.34569009 101.46428146 -557.3444134 91.28816289 C-557.34390469 85.21744216 -557.34953746 79.14688367 -557.3707695 73.07619667 C-557.39020775 67.36252804 -557.39023804 61.64917549 -557.37573624 55.93549538 C-557.37365388 53.84623246 -557.37831458 51.75694947 -557.39045715 49.66772079 C-557.54254575 21.67167847 -557.54254575 21.67167847 -547.0390625 11.01171875 C-541.14771441 6.06127562 -534.90957533 4.10935042 -527.25512695 4.04199219 C-526.36682693 4.03238464 -525.47852692 4.0227771 -524.56330872 4.01287842 C-523.61429184 4.00862854 -522.66527496 4.00437866 -521.6875 4 C-520.69727341 3.99429993 -519.70704681 3.98859985 -518.68681335 3.98272705 C-516.5930589 3.97329549 -514.49928972 3.96675041 -512.40551758 3.96289062 C-509.22775838 3.95321192 -506.05065372 3.92218165 -502.87304688 3.890625 C-500.83203506 3.88409142 -498.79101865 3.87884235 -496.75 3.875 C-495.34165642 3.8564798 -495.34165642 3.8564798 -493.90486145 3.83758545 C-484.64167586 3.8683353 -476.46054431 5.58701774 -469.64453125 12.11328125 C-462.43601916 20.68340118 -461.77908098 30.10386072 -461.5703125 40.85546875 C-461.5495314 41.75560196 -461.52875031 42.65573517 -461.50733948 43.58314514 C-461.44238038 46.43556687 -461.38321047 49.28807425 -461.32421875 52.140625 C-461.28098242 54.08399294 -461.23736656 56.02735248 -461.19335938 57.97070312 C-461.0867546 62.71475779 -460.9853388 67.45889791 -460.88671875 72.203125 C-459.1251717 70.13115991 -457.364952 68.05809149 -455.60546875 65.984375 C-455.11014648 65.40204102 -454.61482422 64.81970703 -454.10449219 64.21972656 C-451.45885149 61.09945265 -448.86854542 57.95682328 -446.38671875 54.703125 C-443.08881254 50.39533364 -439.59208048 46.26656154 -436.07202148 42.140625 C-433.14277312 38.70326721 -430.27763895 35.22453382 -427.44921875 31.703125 C-407.50255529 7.33179916 -407.50255529 7.33179916 -390.88671875 4.203125 C-385.68442969 3.78194863 -380.50366022 3.75530444 -375.2890625 3.76953125 C-373.80416122 3.76495727 -372.31926204 3.75964814 -370.83436584 3.75364685 C-367.74064465 3.74477146 -364.64718238 3.74707603 -361.5534668 3.75708008 C-357.61410593 3.76858588 -353.6756394 3.74830601 -349.73639584 3.71916294 C-346.67605542 3.70071079 -343.61592606 3.70111079 -340.5555439 3.70680046 C-339.10405787 3.70695245 -337.65255639 3.70101054 -336.20112419 3.68850899 C-327.20961149 3.62192749 -318.05324361 3.62794273 -310.9573822 9.91163635 C-306.60511251 14.5294353 -304.84790722 19.1988952 -304.57421875 25.515625 C-304.88761081 35.3957221 -309.42819415 42.86700894 -315.88671875 50.203125 C-316.54671875 50.203125 -317.20671875 50.203125 -317.88671875 50.203125 C-317.88671875 50.863125 -317.88671875 51.523125 -317.88671875 52.203125 C-318.54671875 52.203125 -319.20671875 52.203125 -319.88671875 52.203125 C-320.15025146 52.78884277 -320.41378418 53.37456055 -320.68530273 53.97802734 C-321.93774717 56.29763282 -323.28988449 57.90517131 -325.109375 59.8046875 C-325.73005859 60.45953125 -326.35074219 61.114375 -326.99023438 61.7890625 C-327.63669922 62.46195312 -328.28316406 63.13484375 -328.94921875 63.828125 C-330.2338001 65.17254314 -331.51644977 66.51881047 -332.796875 67.8671875 C-333.36543213 68.45967285 -333.93398926 69.0521582 -334.51977539 69.66259766 C-335.98055838 71.17486479 -335.98055838 71.17486479 -336.88671875 73.203125 C-337.54671875 73.203125 -338.20671875 73.203125 -338.88671875 73.203125 C-339.09941406 73.73421875 -339.31210937 74.2653125 -339.53125 74.8125 C-341.40919277 78.12460655 -343.96711911 80.71247063 -346.57421875 83.453125 C-347.67134667 84.62297274 -348.76770552 85.79354224 -349.86328125 86.96484375 C-350.38954102 87.52606934 -350.91580078 88.08729492 -351.45800781 88.66552734 C-353.16154896 90.49890092 -354.81400138 92.37116585 -356.44921875 94.265625 C-359.25809341 97.51550655 -362.15771576 100.67516257 -365.07421875 103.828125 C-369.59361085 108.72082776 -373.94812766 113.73378197 -378.23583984 118.83032227 C-380.92077639 121.99686766 -383.67221768 125.05363988 -386.5703125 128.02734375 C-387.47837646 128.96634521 -387.47837646 128.96634521 -388.40478516 129.92431641 C-389.57784422 131.12801864 -390.76334461 132.3197525 -391.96240234 133.49755859 C-395.00815236 136.57784314 -395.00815236 136.57784314 -396.0859375 140.63671875 C-394.33330424 144.38746811 -391.94290604 147.46227254 -389.38671875 150.703125 C-388.29618628 152.11825974 -387.20767097 153.53495105 -386.12109375 154.953125 C-385.57775391 155.66082031 -385.03441406 156.36851562 -384.47460938 157.09765625 C-380.77106587 162.00838184 -377.33792156 167.11347237 -373.88671875 172.203125 C-373.84708008 171.65599854 -373.80744141 171.10887207 -373.76660156 170.54516602 C-371.42411962 139.55904777 -363.01422974 111.41770793 -339.88671875 89.203125 C-339.1596875 88.84347656 -338.43265625 88.48382813 -337.68359375 88.11328125 C-335.52270667 87.28345144 -335.52270667 87.28345144 -334.88671875 84.203125 C-315.70001334 68.22995645 -291.520769 60.34703878 -266.88671875 59.203125 C-265.79617188 59.13738281 -264.705625 59.07164062 -263.58203125 59.00390625 C-241.14569397 58.23843121 -221.44502697 66.35739635 -202.88671875 78.203125 C-202.78488281 77.60628906 -202.68304688 77.00945312 -202.578125 76.39453125 C-201.76488033 73.81695915 -200.86416008 72.88317169 -198.82421875 71.140625 C-198.00244141 70.41166016 -198.00244141 70.41166016 -197.1640625 69.66796875 C-190.22848664 65.20683505 -183.7305621 64.74601947 -175.703125 64.76953125 C-174.64818344 64.7642894 -173.59324188 64.75904755 -172.5063324 64.75364685 C-170.28507361 64.74725056 -168.06378085 64.74853246 -165.8425293 64.75708008 C-162.4627596 64.7655909 -159.08468132 64.73679187 -155.70507812 64.70507812 C-153.53776092 64.70346578 -151.37044075 64.70404427 -149.203125 64.70703125 C-148.20285782 64.69579727 -147.20259064 64.68456329 -146.17201233 64.67298889 C-137.3876365 64.75932148 -129.92775051 67.29758415 -123.42016602 73.36645508 C-116.13300297 82.09457602 -113.59961607 95.7927308 -110.19921875 106.453125 C-109.61320436 108.27101852 -109.02661977 110.08872833 -108.43945312 111.90625 C-101.88671875 132.24993523 -101.88671875 132.24993523 -101.88671875 137.203125 C-101.22671875 137.203125 -100.56671875 137.203125 -99.88671875 137.203125 C-99.7877832 136.09573975 -99.68884766 134.98835449 -99.58691406 133.84741211 C-98.93080531 128.64356213 -97.34876438 123.85219339 -95.68359375 118.89453125 C-95.36392639 117.92837387 -95.04425903 116.96221649 -94.71490479 115.96678162 C-94.03942226 113.93258297 -93.36013279 111.89964493 -92.67724609 109.86791992 C-91.64234916 106.78241188 -90.62515182 103.69145692 -89.609375 100.59960938 C-88.94767821 98.61422853 -88.28495123 96.62919067 -87.62109375 94.64453125 C-87.32193054 93.73175919 -87.02276733 92.81898712 -86.71453857 91.8785553 C-84.205113 84.48293863 -81.20398941 76.53975493 -75.13671875 71.328125 C-74.54375 70.79445313 -73.95078125 70.26078125 -73.33984375 69.7109375 C-64.94328078 64.54999274 -56.4476732 64.83064978 -46.82421875 65.015625 C-45.46811389 65.03070544 -44.11199273 65.04438788 -42.75585938 65.05664062 C-39.46572273 65.09176664 -36.17643692 65.1409586 -32.88671875 65.203125 C-32.9024292 63.44838867 -32.9024292 63.44838867 -32.91845703 61.65820312 C-32.95484382 57.28974506 -32.97768685 52.92130022 -32.99658203 48.55273438 C-33.00659722 46.66729474 -33.02021327 44.78187047 -33.03759766 42.89648438 C-33.06204407 40.17574251 -33.07324691 37.45520723 -33.08203125 34.734375 C-33.09235382 33.90071411 -33.10267639 33.06705322 -33.11331177 32.20812988 C-33.1151275 22.58960401 -30.89199951 14.98721035 -24.63671875 7.515625 C-17.08731335 1.16726137 -9.57722292 0.04977172 0 0 Z " fill="#21213C" transform="translate(698.88671875,333.796875)"/>
<path d="M0 0 C1.20672867 -0.01913956 1.20672867 -0.01913956 2.43783569 -0.03866577 C3.73631943 -0.04200424 3.73631943 -0.04200424 5.06103516 -0.04541016 C5.95496979 -0.05206696 6.84890442 -0.05872375 7.76992798 -0.06558228 C9.66121361 -0.07570735 11.55253495 -0.08039934 13.44384766 -0.08007812 C16.33247032 -0.084446 19.21955841 -0.12075161 22.10791016 -0.15869141 C23.9464466 -0.16456072 25.7849903 -0.16852934 27.62353516 -0.17041016 C28.9159462 -0.19196671 28.9159462 -0.19196671 30.23446655 -0.21395874 C31.04525665 -0.20780548 31.85604675 -0.20165222 32.69140625 -0.1953125 C33.39961517 -0.19816254 34.1078241 -0.20101257 34.8374939 -0.20394897 C38.161706 0.56501681 39.68220043 1.76126294 41.97509766 4.29052734 C42.47123551 7.33470223 42.64682959 9.8234457 42.6027832 12.86694336 C42.61005432 13.73077637 42.61732544 14.59460938 42.62481689 15.48461914 C42.64341115 18.3383072 42.62734242 21.19074492 42.61181641 24.04443359 C42.61985419 26.02694318 42.63037093 28.00944415 42.64326477 29.9919281 C42.67183785 35.21051072 42.67238393 40.42869638 42.66540527 45.64733887 C42.65808621 54.00412072 42.68935106 62.36077373 42.72785378 70.7174511 C42.73672599 73.63965264 42.73139333 76.56157876 42.72428894 79.48377991 C42.72767255 81.270356 42.73142156 83.05693144 42.7355957 84.84350586 C42.72990067 85.65865158 42.72420563 86.4737973 42.71833801 87.31364441 C42.7386603 91.16994221 42.78471919 93.00495964 44.97509766 96.29052734 C47.81041301 97.06885491 47.81041301 97.06885491 50.97509766 96.29052734 C53.21623028 94.21876507 54.9348592 92.35513152 56.78759766 89.97802734 C57.31039307 89.33792725 57.83318848 88.69782715 58.37182617 88.03833008 C59.92236376 86.13473971 61.44979711 84.2143576 62.97509766 82.29052734 C64.45165597 80.47590181 65.93056532 78.66318492 67.41259766 76.85302734 C68.12287109 75.97775391 68.83314453 75.10248047 69.56494141 74.20068359 C72.47970847 70.68123228 75.47226336 67.23484079 78.47509766 63.79052734 C82.9898705 58.61122563 87.40747519 53.3721712 91.73291016 48.03271484 C94.27763623 44.92052372 96.87135682 41.85332993 99.47509766 38.79052734 C105.17808041 32.07648947 110.77529225 25.27947395 116.28759766 18.40771484 C130.32911022 0.99813676 130.32911022 0.99813676 138.96099854 -0.08369446 C140.53080475 -0.08275032 140.53080475 -0.08275032 142.13232422 -0.08178711 C143.32666077 -0.0880159 144.52099731 -0.09424469 145.75152588 -0.10066223 C147.02671082 -0.09145248 148.30189575 -0.08224274 149.61572266 -0.07275391 C151.59351715 -0.07350166 151.59351715 -0.07350166 153.61126709 -0.07426453 C156.39184114 -0.07417513 159.17212325 -0.0638083 161.95263672 -0.0456543 C165.51942183 -0.02287933 169.08578426 -0.02244233 172.65262222 -0.02917194 C176.0570376 -0.03330963 179.46132189 -0.02135017 182.86572266 -0.01025391 C184.14900452 -0.01116531 185.43228638 -0.01207672 186.75445557 -0.01301575 C187.93618347 -0.00348373 189.11791138 0.00604828 190.33544922 0.01586914 C191.90048187 0.02278023 191.90048187 0.02278023 193.49713135 0.02983093 C195.97509766 0.29052734 195.97509766 0.29052734 197.97509766 2.29052734 C197.85751911 7.15324011 195.07660423 9.80850482 191.85009766 13.10302734 C190.83639142 14.17138784 189.82336933 15.2403979 188.81103516 16.31005859 C188.31958008 16.82391113 187.828125 17.33776367 187.32177734 17.8671875 C185.65312747 19.63082578 184.05759113 21.44943128 182.47509766 23.29052734 C179.11322359 27.16713811 175.64427093 30.94250637 172.17138672 34.71923828 C165.95441661 41.4823801 159.81533617 48.31025366 153.77978516 55.23583984 C149.45471086 60.16005863 145.03938329 65.00457345 140.64697266 69.86865234 C137.27124744 73.61180344 133.90372331 77.35849207 130.60009766 81.16552734 C127.61592813 84.59385234 124.55310256 87.94663101 121.47509766 91.29052734 C117.73438719 95.35657223 114.00577771 99.42866315 110.41259766 103.62646484 C109.16312213 105.07286858 107.85492892 106.46814064 106.53759766 107.85302734 C104.38589062 111.20969032 104.63028644 113.34804725 104.97509766 117.29052734 C106.40713236 120.25277963 106.40713236 120.25277963 108.60009766 123.04052734 C108.9976123 123.58507568 109.39512695 124.12962402 109.8046875 124.69067383 C110.69401541 125.90432317 111.5911043 127.11231201 112.49462891 128.31542969 C114.06870859 130.41541396 115.61722154 132.53262237 117.16259766 134.65380859 C123.83651592 143.79226893 130.6337615 152.83746286 137.43847656 161.87866211 C142.05812153 168.03120559 146.57681979 174.25024681 151.0612793 180.50170898 C155.12659722 186.15373432 159.28571315 191.73002287 163.47509766 197.29052734 C165.34976663 199.79024818 167.22334369 202.29078401 169.09667969 204.79150391 C170.36132785 206.47397579 171.63063097 208.15295766 172.90429688 209.82861328 C174.75371095 212.26456527 176.58467067 214.71343017 178.41259766 217.16552734 C178.97462891 217.89642578 179.53666016 218.62732422 180.11572266 219.38037109 C182.5097511 222.62291595 183.88150478 224.62068084 184.44775391 228.67333984 C183.97509766 231.29052734 183.97509766 231.29052734 181.97509766 233.29052734 C179.87677002 233.55122375 179.87677002 233.55122375 177.25341797 233.56518555 C175.78113739 233.57948357 175.78113739 233.57948357 174.27911377 233.59407043 C173.2145697 233.59315903 172.15002563 233.59224762 171.05322266 233.59130859 C169.41410919 233.59773628 169.41410919 233.59773628 167.74188232 233.60429382 C165.42509657 233.61004623 163.10829275 233.61053072 160.79150391 233.60620117 C157.25342711 233.60305255 153.71619529 233.62645034 150.17822266 233.65185547 C147.92822371 233.65412955 145.67822252 233.65483145 143.42822266 233.65380859 C142.37177551 233.66301834 141.31532837 233.67222809 140.22686768 233.68171692 C133.78460699 233.64135245 129.1831275 233.06357009 124.13134766 228.69677734 C114.02512325 217.0650851 105.28768091 204.22926529 96.44042969 191.63183594 C91.80479565 185.03161253 87.10608514 178.47927833 82.35400391 171.96240234 C79.94126318 168.64887669 77.58676733 165.30033248 75.25244141 161.93115234 C74.01434418 160.17581419 72.77606738 158.42060269 71.53759766 156.66552734 C70.97057129 155.82908691 70.40354492 154.99264648 69.81933594 154.13085938 C66.7211735 149.65688264 66.7211735 149.65688264 61.94775391 147.41552734 C57.92050102 148.60094738 55.62371799 150.91490995 52.85009766 153.91552734 C52.33833984 154.43759766 51.82658203 154.95966797 51.29931641 155.49755859 C49.79510111 157.06364393 48.35176435 158.61008264 46.97509766 160.29052734 C46.26619385 161.05333008 45.55729004 161.81613281 44.8269043 162.60205078 C41.76623759 167.31816274 42.45982607 173.05300642 42.51980782 178.46998978 C42.5418223 180.5471312 42.53793928 182.62282693 42.52732849 184.70004272 C42.50573544 189.85388267 42.52305422 195.0073933 42.54882812 200.16119385 C42.57023359 204.52683944 42.57218483 208.89155324 42.54591179 213.25718307 C42.54156537 215.30069076 42.5661747 217.34257115 42.59144592 219.38589478 C42.58471359 220.62753387 42.57798126 221.86917297 42.57104492 223.1484375 C42.57644791 224.24064606 42.58185089 225.33285461 42.5874176 226.4581604 C41.97509766 229.29052734 41.97509766 229.29052734 39.70359802 231.6410675 C37.02826636 233.25838528 35.77961183 233.79699314 32.72314453 233.82397461 C31.51664246 233.84772911 31.51664246 233.84772911 30.2857666 233.8719635 C29.43043335 233.86700363 28.5751001 233.86204376 27.69384766 233.85693359 C26.80274292 233.86313217 25.91163818 233.86933075 24.99353027 233.87571716 C23.11418752 233.88280409 21.23478184 233.879661 19.35546875 233.86694336 C16.48401195 233.85307041 13.61581101 233.88717123 10.74462891 233.92529297 C8.91520103 233.92624417 7.08576908 233.9243853 5.25634766 233.91943359 C4.4010144 233.9326918 3.54568115 233.94595001 2.66442871 233.95960999 C-1.74817521 233.89085297 -3.48263913 233.72438178 -7.04248047 230.8762207 C-10.39857653 226.49882989 -10.17084192 223.11752012 -10.16534424 217.76957703 C-10.16831536 216.87709804 -10.17128648 215.98461905 -10.17434764 215.06509525 C-10.18306103 212.0564897 -10.18454511 209.04792382 -10.18603516 206.03930664 C-10.19066146 203.88951532 -10.19568587 201.73972483 -10.20108032 199.5899353 C-10.21422438 193.73659922 -10.22065318 187.88327461 -10.22509098 182.02992606 C-10.22801847 178.37581778 -10.23212266 174.72171267 -10.23659515 171.06760597 C-10.25027536 159.64297458 -10.25993946 148.21835038 -10.26379704 136.79371136 C-10.26827925 123.59040788 -10.28583255 110.38720784 -10.31479764 97.18393582 C-10.33639025 86.98857048 -10.34650003 76.7932343 -10.34783816 66.59784633 C-10.34888793 60.5038419 -10.35483211 54.40993464 -10.37265778 48.31595421 C-10.38909661 42.58438267 -10.39131433 36.85298178 -10.38251877 31.12139511 C-10.38174615 29.01587658 -10.38612061 26.91034904 -10.39597702 24.80485344 C-10.40863041 21.93384009 -10.40285567 19.06343718 -10.39239502 16.19242859 C-10.40447963 14.93814474 -10.40447963 14.93814474 -10.41680837 13.65852183 C-10.37744254 9.04929299 -10.02755018 6.02212998 -7.02490234 2.29052734 C-4.00091697 0.27453709 -3.39329732 0.03660979 0 0 Z " fill="#F950AA" transform="translate(173.02490234375,358.70947265625)"/>
<path d="M0 0 C1.80404297 0.81210937 1.80404297 0.81210937 3.64453125 1.640625 C22.94853185 11.25891633 37.34479478 27.81275407 44.30102539 48.16381836 C47.93306291 59.71194224 49.19268073 70.9400715 49.4375 83 C49.47206299 84.00426025 49.50662598 85.00852051 49.54223633 86.04321289 C49.55033325 87.47588501 49.55033325 87.47588501 49.55859375 88.9375 C49.57877563 90.21947266 49.57877563 90.21947266 49.59936523 91.52734375 C48.6676746 95.37099457 47.17224341 96.62543609 44 99 C40.17209671 99.73240597 36.39496851 99.63144343 32.50854492 99.56762695 C31.34713989 99.56835709 30.18573486 99.56908722 28.98913574 99.56983948 C25.15243744 99.56635763 21.31695484 99.52746471 17.48046875 99.48828125 C14.81958459 99.47895524 12.15876767 99.47159222 9.49787903 99.46684265 C3.2115021 99.45131644 -3.07443886 99.41030521 -9.36062402 99.3600952 C-16.51894592 99.30416312 -23.67728891 99.27670564 -30.83577502 99.25161803 C-45.55740608 99.19938782 -60.27869544 99.11146974 -75 99 C-74.53139102 101.09134797 -74.05898315 103.18184499 -73.58496094 105.27197266 C-73.32229431 106.43620758 -73.05962769 107.6004425 -72.78900146 108.79995728 C-70.66385524 117.41915383 -66.3022441 125.73808881 -59 131 C-47.08704324 137.97034704 -35.12190945 139.89429196 -21.53515625 137.3515625 C-12.71532247 134.69539634 -5.88896693 130.4137148 -1.37890625 122.30859375 C1.25326383 118.86722944 2.57438137 118.08496337 6.88793945 117.22387695 C10.84538077 116.94716412 14.78202335 117.00638268 18.74414062 117.15625 C21.25785972 117.25029405 23.76594101 117.27921682 26.28125 117.296875 C27.88027732 117.32436923 29.47924728 117.35549165 31.078125 117.390625 C31.82813782 117.40337463 32.57815063 117.41612427 33.35089111 117.42926025 C36.29547128 117.55086408 38.48058397 117.65277747 40.96777344 119.31542969 C42.85240953 122.39111301 42.51093002 125.57444643 42 129 C37.94487107 144.01363211 24.76134334 156.80490957 11.7265625 164.515625 C7.22827777 166.96454792 2.77592917 169.13932709 -2 171 C-3.70929688 171.70189453 -3.70929688 171.70189453 -5.453125 172.41796875 C-27.37269663 180.5661847 -54.02342509 177.55932485 -75 168 C-85.39074784 162.87097172 -93.87604438 156.19780976 -102 148 C-102.66515625 147.36835937 -103.3303125 146.73671875 -104.015625 146.0859375 C-119.21246207 130.54682932 -123.40889409 105.87949828 -123.3125 85.125 C-123.30831055 83.89064209 -123.30412109 82.65628418 -123.29980469 81.38452148 C-123.19350272 72.83117116 -122.52495903 65.20611686 -120 57 C-119.7215625 55.92492187 -119.443125 54.84984375 -119.15625 53.7421875 C-113.15099305 31.84370741 -98.44713071 15.19683283 -79 4 C-78.19949219 3.53722656 -77.39898437 3.07445312 -76.57421875 2.59765625 C-69.72642921 -1.08961504 -62.50539787 -3.071661 -55 -5 C-54.12202759 -5.2626062 -54.12202759 -5.2626062 -53.22631836 -5.53051758 C-36.36832405 -9.08550421 -15.49475804 -7.12166714 0 0 Z " fill="#FDFDFC" transform="translate(470,421)"/>
<path d="M0 0 C0.80448578 -0.01591187 1.60897156 -0.03182373 2.43783569 -0.04821777 C3.73631943 -0.0485199 3.73631943 -0.0485199 5.06103516 -0.04882812 C5.95496979 -0.05644165 6.84890442 -0.06405518 7.76992798 -0.07189941 C9.66120613 -0.08270495 11.55254398 -0.08555167 13.44384766 -0.08105469 C16.33288654 -0.08008391 19.21925597 -0.12166577 22.10791016 -0.16601562 C23.94644629 -0.17122389 25.78499165 -0.1739108 27.62353516 -0.17382812 C28.9159462 -0.19842102 28.9159462 -0.19842102 30.23446655 -0.22351074 C34.49363464 -0.17462836 36.42066805 0.01169287 39.9387207 2.60205078 C42.03662112 5.505056 43.00377898 7.65197482 43.90869141 11.09960938 C44.38991455 12.81615723 44.38991455 12.81615723 44.88085938 14.56738281 C45.05284851 15.18689819 45.22483765 15.80641357 45.40203857 16.44470215 C46.45066185 20.05909628 47.67710981 23.61416996 48.88525391 27.17773438 C49.4055743 28.72586505 49.925755 30.27404268 50.44580078 31.82226562 C51.24320546 34.18969115 52.04160353 36.55677284 52.84155273 38.92333984 C58.31131583 55.12051924 58.31131583 55.12051924 60.23461914 62.76318359 C61.33157981 66.69893236 62.66851087 70.54959541 63.97509766 74.41992188 C64.47161968 75.91761136 64.96706925 77.41565683 65.46142578 78.9140625 C66.82612689 83.0397856 68.2057677 87.16036468 69.59082031 91.27929688 C70.18465304 93.05259748 70.77411241 94.8273681 71.359375 96.60351562 C72.20974749 99.1816065 73.0751627 101.75420289 73.94384766 104.32617188 C74.20331177 105.12398071 74.46277588 105.92178955 74.73010254 106.74377441 C75.38882497 108.66885496 76.17182179 110.55053743 76.97509766 112.41992188 C78.46009766 112.91492188 78.46009766 112.91492188 79.97509766 113.41992188 C80.15298828 112.37578125 80.15298828 112.37578125 80.33447266 111.31054688 C81.04012602 108.12650121 82.08153299 105.22425282 83.22509766 102.16992188 C85.08913063 97.05441836 86.74461229 91.92728817 88.23291016 86.68945312 C91.08985873 76.82271911 94.32786465 67.09282178 97.60009766 57.35742188 C98.21509908 55.52335987 98.83008916 53.68929406 99.44506836 51.85522461 C100.6854221 48.15945067 101.92864415 44.46465696 103.17382812 40.77050781 C104.60617432 36.52013762 106.02903506 32.26667909 107.44854736 28.01200867 C108.44607643 25.02849026 109.45140353 22.04764998 110.45941162 19.06765747 C110.92498456 17.68704236 111.38763382 16.30543759 111.847229 14.92282104 C112.47910039 13.0245041 113.12326476 11.13029209 113.76806641 9.23632812 C114.12408936 8.17873291 114.4801123 7.1211377 114.84692383 6.03149414 C116.62391868 1.91798756 116.62391868 1.91798756 118.97509766 0.41992188 C121.51563694 0.12165285 123.80629382 -0.00074676 126.34619141 0.02148438 C127.06492935 0.0186142 127.7836673 0.01574402 128.52418518 0.01278687 C130.04306832 0.01074711 131.56197778 0.01627087 133.08081055 0.02880859 C135.40099153 0.04484167 137.71942452 0.02897075 140.03955078 0.00976562 C141.51676816 0.01174853 142.99398445 0.0155932 144.47119141 0.02148438 C145.16296982 0.01541168 145.85474823 0.00933899 146.56748962 0.00308228 C149.48258584 0.04544676 151.76631521 0.32796924 154.4440918 1.50732422 C156.82554763 4.48234016 156.35292248 6.70191358 155.97509766 10.41992188 C155.09228516 13.94873047 155.09228516 13.94873047 153.85009766 17.69335938 C153.51341064 18.72449356 153.51341064 18.72449356 153.16992188 19.77645874 C152.69038173 21.24369092 152.20671913 22.70958127 151.71923828 24.17419434 C150.73510245 27.14419874 149.7850357 30.12466682 148.83325195 33.10516357 C147.55861388 37.08877894 146.26648658 41.06671139 144.97509766 45.04492188 C144.69907715 45.89610596 144.42305664 46.74729004 144.13867188 47.62426758 C139.370042 62.3127914 134.43502722 76.94029004 129.37744141 91.53173828 C126.4676892 99.9422393 123.69875191 108.38010224 121.07373047 116.88378906 C119.72960937 121.21006685 118.30574082 125.5051894 116.85009766 129.79492188 C115.03092213 135.19641159 113.25878802 140.59620509 111.71337891 146.08398438 C111.05785492 148.15807615 110.32583926 150.16869852 109.55322266 152.20117188 C108.29878856 155.5082815 107.16676959 158.83577645 106.08642578 162.203125 C103.29573527 170.86639902 100.19377849 179.40723889 96.97509766 187.91992188 C96.57218506 189.00515137 96.16927246 190.09038086 95.75415039 191.20849609 C88.99201262 208.88531862 78.94329675 221.47990065 61.55712891 229.54101562 C53.79271985 232.18396878 45.25525821 231.70706734 37.14038086 231.77001953 C35.56633829 231.78667952 33.99237436 231.81409968 32.41870117 231.85205078 C30.13111816 231.90676058 27.84527724 231.92866624 25.55712891 231.94335938 C24.85602493 231.96602875 24.15492096 231.98869812 23.43257141 232.01205444 C19.82878372 231.99644061 18.25344217 231.66886438 15.53442383 229.23706055 C13.81761254 226.13540321 13.46049526 224.34174655 13.44384766 220.82226562 C13.43869141 219.77361328 13.43353516 218.72496094 13.42822266 217.64453125 C13.44369141 216.55978516 13.45916016 215.47503906 13.47509766 214.35742188 C13.45962891 213.26880859 13.44416016 212.18019531 13.42822266 211.05859375 C13.43337891 210.01123047 13.43853516 208.96386719 13.44384766 207.88476562 C13.44835937 206.93206787 13.45287109 205.97937012 13.45751953 204.99780273 C14.12972642 201.64976853 15.28357433 200.47298809 17.97509766 198.41992188 C20.04638672 197.82983398 20.04638672 197.82983398 22.24072266 197.69726562 C23.45308594 197.60155273 23.45308594 197.60155273 24.68994141 197.50390625 C25.52654297 197.45556641 26.36314453 197.40722656 27.22509766 197.35742188 C33.73923725 196.94325758 38.94100455 195.97741829 44.97509766 193.41992188 C45.75884766 193.11054687 46.54259766 192.80117188 47.35009766 192.48242188 C49.55544686 191.04046278 50.00328769 189.88184045 50.97509766 187.41992188 C51.23419922 186.82824219 51.49330078 186.2365625 51.76025391 185.62695312 C52.03740234 184.96050781 52.31455078 184.2940625 52.60009766 183.60742188 C52.86048828 182.98222656 53.12087891 182.35703125 53.38916016 181.71289062 C55.1725621 174.73384435 53.11172543 169.08385846 50.67822266 162.61523438 C50.3330661 161.67038681 49.98790955 160.72553925 49.6322937 159.75205994 C48.50701251 156.67905838 47.36618355 153.61208565 46.22509766 150.54492188 C45.44650622 148.42740055 44.66900648 146.30947752 43.89257812 144.19116211 C42.33336827 139.94134447 40.76850955 135.69367855 39.19873047 131.44775391 C37.20769583 126.05824385 35.2371331 120.66159151 33.27978516 115.25976562 C33.00360352 114.49764771 32.72742188 113.73552979 32.44287109 112.95031738 C31.91358838 111.48927655 31.38440951 110.0281981 30.85534668 108.56707764 C29.67155079 105.29953694 28.48399215 102.03338142 27.29541016 98.76757812 C26.91658691 97.72609619 26.53776367 96.68461426 26.14746094 95.61157227 C25.29859851 93.30062296 24.43888117 90.99365137 23.57250977 88.68920898 C22.06935411 84.68900674 20.60581994 80.67499718 19.14732361 76.6583252 C17.63868813 72.50377956 16.12281576 68.35188054 14.60766602 64.19970703 C13.8216368 62.04250245 13.03740555 59.88464174 12.25512695 57.72607422 C3.53766661 33.19067786 3.53766661 33.19067786 -7.02490234 9.41992188 C-7.48406366 4.02477637 -7.48406366 4.02477637 -5.76083374 1.75476074 C-3.6645368 0.14281995 -2.62036994 0.03122111 0 0 Z " fill="#FDFDFD" transform="translate(520.02490234375,419.580078125)"/>
<path d="M0 0 C0.8065654 -0.00902847 1.6131308 -0.01805695 2.44413757 -0.02735901 C4.15306884 -0.0418804 5.86205594 -0.05075293 7.57104492 -0.05444336 C10.1791849 -0.06631506 12.78493966 -0.1154561 15.39257812 -0.16601562 C17.05337387 -0.17548276 18.71418416 -0.18271641 20.375 -0.1875 C21.54087395 -0.21679848 21.54087395 -0.21679848 22.7303009 -0.24668884 C26.45600666 -0.2158362 28.60921021 0.17867334 31.69189453 2.31616211 C34.536314 6.2752523 35.98976217 10.20610588 37.515625 14.80859375 C37.99019386 16.18337891 37.99019386 16.18337891 38.47434998 17.5859375 C39.47970264 20.50983234 40.46445503 23.44020912 41.44921875 26.37109375 C42.11394104 28.31033963 42.77994491 30.24914673 43.44726562 32.1875 C46.11322404 39.96491989 48.73450791 47.74708492 51.1015625 55.62109375 C52.42000724 59.99507106 53.97306732 64.16916162 55.71728516 68.38769531 C58.26550521 74.88858238 60.43939241 81.53184776 62.68774414 88.14111328 C63.57958629 90.76186672 64.47602403 93.38101583 65.37304688 96 C65.94428005 97.67308505 66.51525302 99.34625897 67.0859375 101.01953125 C67.35258713 101.79871918 67.61923676 102.5779071 67.89396667 103.38070679 C69.0176601 106.68980075 70.07299002 109.97286848 70.88671875 113.37109375 C72.20671875 113.37109375 73.52671875 113.37109375 74.88671875 113.37109375 C75.02301193 112.63970184 75.15930511 111.90830994 75.29972839 111.15475464 C75.82978071 108.64110876 76.48824918 106.2743232 77.27856445 103.83251953 C77.56051666 102.95633972 77.84246887 102.08015991 78.13296509 101.1774292 C78.43971161 100.23329163 78.74645813 99.28915405 79.0625 98.31640625 C79.7268209 96.25439913 80.39112691 94.1923872 81.05541992 92.13037109 C81.58019424 90.50672638 81.58019424 90.50672638 82.11557007 88.85028076 C88.4515417 69.23872758 94.6576501 49.59224611 100.67185974 29.87973022 C101.10769226 28.45379348 101.5451098 27.02834003 101.98426819 25.60342407 C103.08565359 22.02615292 104.15716975 18.44358449 105.18603516 14.84472656 C105.5090435 13.74386215 105.5090435 13.74386215 105.83857727 12.62075806 C106.24656738 11.23002142 106.64377578 9.83605735 107.02799988 8.43856812 C107.83120555 5.73978132 108.676199 3.62419993 110.48461914 1.44995117 C114.19117481 -0.21477792 117.72072227 -0.03697397 121.73828125 0.0078125 C122.59352386 0.007314 123.44876648 0.00681549 124.32992554 0.00630188 C126.13371103 0.00863842 127.93750004 0.01834216 129.74121094 0.03491211 C132.50875811 0.05856844 135.27534574 0.05546216 138.04296875 0.04882812 C139.79557868 0.05440293 141.54818455 0.06151156 143.30078125 0.0703125 C144.13098785 0.06940109 144.96119446 0.06848969 145.81655884 0.06755066 C151.6556715 0.1400465 151.6556715 0.1400465 153.88671875 2.37109375 C154.18936298 8.75731183 151.94018801 14.83339679 149.74609375 20.72265625 C149.10578494 22.49499625 148.4658195 24.26746033 147.82617188 26.04003906 C147.50108643 26.93082153 147.17600098 27.821604 146.84106445 28.73937988 C145.38430177 32.75656417 143.9877487 36.79407395 142.58984375 40.83203125 C142.02849164 42.44502191 141.46679869 44.05789398 140.90478516 45.6706543 C140.61806946 46.49383148 140.33135376 47.31700867 140.03594971 48.16513062 C133.88961358 65.80627923 127.71146794 83.43614845 121.51171875 101.05859375 C120.91804504 102.74640961 120.91804504 102.74640961 120.31237793 104.46832275 C115.89405437 117.02690524 111.46183688 129.58041901 107.00390625 142.125 C106.6120816 143.22829147 106.22025696 144.33158295 105.81655884 145.4683075 C103.9572022 150.70355717 102.09550999 155.93794925 100.22900391 161.1706543 C99.56272978 163.04472508 98.89654634 164.9188281 98.23046875 166.79296875 C97.9344577 167.61974625 97.63844666 168.44652374 97.33346558 169.2983551 C95.58439753 174.22915934 94.00456778 179.18686769 92.54023743 184.20980835 C87.61474329 200.49916465 79.66311784 217.10899997 64.6328125 225.96875 C56.62736 230.05688292 48.79381831 231.52216243 39.84765625 231.57421875 C38.70364853 231.58276886 38.70364853 231.58276886 37.53652954 231.5914917 C35.93126804 231.60090238 34.32598755 231.60745997 32.72070312 231.61132812 C30.26268376 231.62108992 27.80548171 231.65217129 25.34765625 231.68359375 C23.7851612 231.69011924 22.22266019 231.69537149 20.66015625 231.69921875 C19.9257431 231.71156555 19.19132996 231.72391235 18.43466187 231.7366333 C15.60541746 231.72422634 13.41275874 231.67255815 10.92578125 230.24731445 C9.39023702 227.4746036 9.49761178 225.1795997 9.48828125 222.0234375 C9.48248047 220.15655273 9.48248047 220.15655273 9.4765625 218.25195312 C9.48816406 216.95064453 9.49976563 215.64933594 9.51171875 214.30859375 C9.50011719 213.00341797 9.48851562 211.69824219 9.4765625 210.35351562 C9.48042969 209.11021484 9.48429688 207.86691406 9.48828125 206.5859375 C9.49166504 205.4424585 9.49504883 204.29897949 9.49853516 203.12084961 C9.62663574 202.21343018 9.75473633 201.30601074 9.88671875 200.37109375 C13.52376711 197.94639484 15.43056615 198.11315193 19.76171875 197.99609375 C27.24761489 197.67427701 33.82702689 195.90750999 40.88671875 193.37109375 C41.87671875 193.04109375 42.86671875 192.71109375 43.88671875 192.37109375 C44.98840859 190.67340141 44.98840859 190.67340141 45.88671875 188.37109375 C46.42296875 187.33984375 46.95921875 186.30859375 47.51171875 185.24609375 C50.83339206 177.31051806 48.69805436 169.39283084 45.73828125 161.71875 C45.41048676 160.8300975 45.08269226 159.94144501 44.7449646 159.02586365 C43.6823104 156.15589121 42.59726783 153.29497511 41.51171875 150.43359375 C40.76540805 148.43025273 40.0206274 146.42634109 39.27734375 144.421875 C37.47429396 139.5687276 35.65473818 134.7219928 33.82922363 129.8772583 C32.20125177 125.54840499 30.59865523 121.21029948 28.99584961 116.87207031 C28.25661729 114.87192862 27.51524383 112.87257696 26.77172852 110.87402344 C21.88306547 97.7247132 17.1150231 84.5310628 12.33007812 71.34375 C11.99298325 70.41507614 11.65588837 69.48640228 11.30857849 68.52958679 C10.67556856 66.78544271 10.04294195 65.04115944 9.41078186 63.29670715 C7.84503833 58.98215248 6.25821728 54.67666098 4.64155579 50.38093567 C2.28190207 44.0980816 -0.02466617 37.79570683 -2.32104492 31.48950195 C-2.97541425 29.69891395 -3.63396184 27.90984749 -4.29663086 26.12231445 C-5.26052229 23.52021308 -6.20974155 20.91315422 -7.15625 18.3046875 C-7.60148262 17.11690956 -7.60148262 17.11690956 -8.05570984 15.90513611 C-9.72093851 11.26244472 -10.61919158 7.37876881 -10.11328125 2.37109375 C-7.16077557 -0.58141193 -3.96088462 0.02711662 0 0 Z " fill="#FDFDFC" transform="translate(758.11328125,419.62890625)"/>
<path d="M0 0 C0.80232056 -0.00241196 1.60464111 -0.00482391 2.43127441 -0.00730896 C4.12236489 -0.00633237 5.81348807 0.00701667 7.50439453 0.03198242 C10.08607073 0.06630416 12.6643234 0.05263157 15.24609375 0.03320312 C16.89324367 0.04010196 18.54038479 0.0497747 20.1875 0.0625 C20.95533813 0.05754013 21.72317627 0.05258026 22.51428223 0.04747009 C27.48642674 0.15618995 30.11272626 1.05818691 33.59375 4.62890625 C35.25671416 7.95483457 34.73786643 11.6827227 34.73419189 15.3396759 C34.73716302 16.25257265 34.74013414 17.1654694 34.7431953 18.10602969 C34.75190929 21.1837327 34.75339282 24.26139694 34.75488281 27.33911133 C34.75950908 29.53816308 34.76453347 31.73721403 34.76992798 33.93626404 C34.78307243 39.92389337 34.78950091 45.91151148 34.79393864 51.89915299 C34.79686605 55.6370161 34.80097022 59.37487611 34.80544281 63.11273766 C34.81912309 74.7989975 34.82880314 86.48525089 34.8326447 98.17151815 C34.83308817 99.51709608 34.83353473 100.86267402 34.83398438 102.20825195 C34.8342058 102.87570711 34.83442723 103.54316226 34.83465537 104.23084333 C34.83860333 115.04586825 34.85605661 125.86082579 34.8793439 136.67582468 C34.90305259 147.77602451 34.91526151 158.87619629 34.91668582 169.97642249 C34.91773564 176.2101544 34.92368095 182.44379132 34.94150543 188.67749977 C34.9579429 194.54039429 34.96016265 200.40312197 34.95136642 206.26603127 C34.95059373 208.41992641 34.9549692 210.57383036 34.96482468 212.72770309 C34.97747576 215.66439784 34.97170455 218.6004956 34.96124268 221.53718567 C34.96929908 222.39282964 34.97735548 223.24847361 34.98565602 224.13004619 C34.94682399 228.77940745 34.62394034 231.85681487 31.59375 235.62890625 C26.5300125 238.160775 18.6340215 236.98441778 13 237.03393555 C11.14922457 237.05554309 9.29855208 237.08967879 7.44824219 237.13647461 C4.78013493 237.20334387 2.11413845 237.23090845 -0.5546875 237.25 C-1.38084564 237.27783066 -2.20700378 237.30566132 -3.05819702 237.33433533 C-4.21927475 237.33017357 -4.21927475 237.33017357 -5.40380859 237.32592773 C-6.08172455 237.3362352 -6.7596405 237.34654266 -7.45809937 237.35716248 C-10.64237666 236.1668183 -12.04995487 233.60094597 -13.40625 230.62890625 C-13.97156905 227.54679597 -13.95106795 224.52618033 -13.9209137 221.39915466 C-13.93133199 220.01855766 -13.93133199 220.01855766 -13.94196075 218.61006981 C-13.96023463 215.53073319 -13.94996526 212.45216663 -13.93969727 209.37280273 C-13.94675542 207.16330387 -13.9555 204.95380984 -13.96580505 202.74432373 C-13.98831753 196.74652155 -13.98535526 190.74898302 -13.97648358 184.75115466 C-13.97137664 179.74585553 -13.97866371 174.74060606 -13.98595566 169.73531204 C-14.00393204 157.25541356 -13.99753779 144.77564217 -13.97978585 132.29575736 C-13.9650832 121.45828077 -13.97972651 110.62108129 -14.00855602 99.78364038 C-14.03794832 88.6516554 -14.04841485 77.51977057 -14.03937382 66.38774163 C-14.0344384 60.13949613 -14.03669402 53.89146616 -14.05716133 47.6432476 C-14.07547845 41.77031998 -14.06960792 35.8979088 -14.04496193 30.02500916 C-14.03994197 27.86789268 -14.04347433 25.71073712 -14.05611038 23.55365181 C-14.07197921 20.61239417 -14.05714803 17.67285009 -14.03443909 14.73167419 C-14.04627482 13.87486775 -14.05811054 13.01806131 -14.07030493 12.13529104 C-14.00293444 7.85065032 -13.77906728 6.12072416 -11.10978603 2.59942722 C-7.47644929 -0.04879576 -4.33244694 -0.07480807 0 0 Z " fill="#FCFCFC" transform="translate(700.40625,354.37109375)"/>
<path d="M0 0 C6.90943316 5.17665995 12.48460819 11.20814031 14.75 19.75 C14.75 22.39 14.75 25.03 14.75 27.75 C-10.33 27.75 -35.41 27.75 -61.25 27.75 C-58.80562092 15.52810458 -54.56623586 6.98322285 -44.25 -0.25 C-30.44278875 -8.66128961 -13.55284071 -8.97472339 0 0 Z " fill="#23243F" transform="translate(457.25,458.25)"/>
<path d="M0 0 C-1.44902969 3.31419098 -3.2680214 5.56592592 -5.8125 8.125 C-6.81216797 9.14980469 -6.81216797 9.14980469 -7.83203125 10.1953125 C-10.13135285 12.10934237 -12.18134751 13.04569183 -15 14 C-3.28571429 0 -3.28571429 0 0 0 Z " fill="#312947" transform="translate(234,506)"/>
<path d="M0 0 C0 3 0 3 -1.75 5.04296875 C-2.4925 5.75066406 -3.235 6.45835937 -4 7.1875 C-4.7425 7.90292969 -5.485 8.61835938 -6.25 9.35546875 C-7.11625 10.16951172 -7.11625 10.16951172 -8 11 C-8.66 10.67 -9.32 10.34 -10 10 C-8.625 8 -8.625 8 -7 6 C-6.34 6 -5.68 6 -5 6 C-4.731875 5.38125 -4.46375 4.7625 -4.1875 4.125 C-3 2 -3 2 0 0 Z " fill="#F757A3" transform="translate(309,374)"/>
<path d="M0 0 C0.66 0.99 1.32 1.98 2 3 C1.15955106 6.43183318 0.51471866 8.48528134 -2 11 C-1.125 3.375 -1.125 3.375 0 0 Z " fill="#3B3B53" transform="translate(635,551)"/>
<path d="M0 0 C0.66 0 1.32 0 2 0 C0.55746343 3.36591866 -1.33264727 5.51047079 -4 8 C-4.66 7.67 -5.32 7.34 -6 7 C-5.04882866 5.8274869 -4.08882991 4.66212985 -3.125 3.5 C-2.59132813 2.8503125 -2.05765625 2.200625 -1.5078125 1.53125 C-0.76144531 0.77328125 -0.76144531 0.77328125 0 0 Z " fill="#EA53A0" transform="translate(287,380)"/>
<path d="M0 0 C0.33 0.66 0.66 1.32 1 2 C0.01 3.485 0.01 3.485 -1 5 C-1.66 5 -2.32 5 -3 5 C-3.33 5.99 -3.66 6.98 -4 8 C-4.66 8 -5.32 8 -6 8 C-4.55746343 4.63408134 -2.66735273 2.48952921 0 0 Z " fill="#F558A3" transform="translate(340,367)"/>
</svg>
